<mxfile host="Electron" agent="Mozilla/5.0 (Macintosh; Intel Mac OS X 10_15_7) AppleWebKit/537.36 (KHTML, like Gecko) draw.io/27.0.9 Chrome/134.0.6998.205 Electron/35.4.0 Safari/537.36" version="27.0.9">
  <diagram name="Page-1" id="M6qkpQoL2yV1ecLeI-IE">
    <mxGraphModel dx="920" dy="1990" grid="1" gridSize="10" guides="1" tooltips="1" connect="1" arrows="1" fold="1" page="1" pageScale="1" pageWidth="827" pageHeight="1169" math="0" shadow="0">
      <root>
        <mxCell id="0" />
        <mxCell id="1" parent="0" />
        <mxCell id="CJPoG4SmHq_SvshiUAaI-1" value="&lt;b&gt;AbstractClass&lt;/b&gt;" style="swimlane;fontStyle=0;childLayout=stackLayout;horizontal=1;startSize=40;fillColor=none;horizontalStack=0;resizeParent=1;resizeParentMax=0;resizeLast=0;collapsible=1;marginBottom=0;whiteSpace=wrap;html=1;strokeWidth=2;labelBorderColor=none;swimlaneLine=1;fontSize=16;" vertex="1" parent="1">
          <mxGeometry x="120" y="40" width="280" height="214" as="geometry" />
        </mxCell>
        <mxCell id="CJPoG4SmHq_SvshiUAaI-2" value="+ template()" style="text;strokeColor=none;fillColor=none;align=left;verticalAlign=top;spacingLeft=4;spacingRight=4;overflow=hidden;rotatable=0;points=[[0,0.5],[1,0.5]];portConstraint=eastwest;whiteSpace=wrap;html=1;fontSize=16;" vertex="1" parent="CJPoG4SmHq_SvshiUAaI-1">
          <mxGeometry y="40" width="280" height="26" as="geometry" />
        </mxCell>
        <mxCell id="CJPoG4SmHq_SvshiUAaI-3" value="+ fixedStep1()" style="text;strokeColor=none;fillColor=none;align=left;verticalAlign=top;spacingLeft=4;spacingRight=4;overflow=hidden;rotatable=0;points=[[0,0.5],[1,0.5]];portConstraint=eastwest;whiteSpace=wrap;html=1;fontSize=16;" vertex="1" parent="CJPoG4SmHq_SvshiUAaI-1">
          <mxGeometry y="66" width="280" height="26" as="geometry" />
        </mxCell>
        <mxCell id="CJPoG4SmHq_SvshiUAaI-4" value="# hookStep2()&lt;div&gt;&lt;br&gt;&lt;div&gt;&lt;br&gt;&lt;/div&gt;&lt;/div&gt;" style="text;strokeColor=none;fillColor=none;align=left;verticalAlign=top;spacingLeft=4;spacingRight=4;overflow=hidden;rotatable=0;points=[[0,0.5],[1,0.5]];portConstraint=eastwest;whiteSpace=wrap;html=1;fontSize=16;" vertex="1" parent="CJPoG4SmHq_SvshiUAaI-1">
          <mxGeometry y="92" width="280" height="122" as="geometry" />
        </mxCell>
        <mxCell id="CJPoG4SmHq_SvshiUAaI-5" value="# hookStep3()&lt;div&gt;&lt;br&gt;&lt;/div&gt;" style="text;strokeColor=none;fillColor=none;align=left;verticalAlign=top;spacingLeft=4;spacingRight=4;overflow=hidden;rotatable=0;points=[[0,0.5],[1,0.5]];portConstraint=eastwest;whiteSpace=wrap;html=1;fontSize=16;" vertex="1" parent="1">
          <mxGeometry x="120" y="158" width="280" height="26" as="geometry" />
        </mxCell>
        <mxCell id="CJPoG4SmHq_SvshiUAaI-6" value="+ fixedStep4()" style="text;strokeColor=none;fillColor=none;align=left;verticalAlign=top;spacingLeft=4;spacingRight=4;overflow=hidden;rotatable=0;points=[[0,0.5],[1,0.5]];portConstraint=eastwest;whiteSpace=wrap;html=1;strokeWidth=2;labelBorderColor=none;fontSize=16;" vertex="1" parent="1">
          <mxGeometry x="120" y="183" width="280" height="26" as="geometry" />
        </mxCell>
        <mxCell id="CJPoG4SmHq_SvshiUAaI-7" value="func template() {&lt;div&gt;&lt;span style=&quot;white-space: pre;&quot;&gt;&#x9;&lt;/span&gt;fixedStep1()&lt;/div&gt;&lt;div&gt;&lt;span style=&quot;white-space: pre;&quot;&gt;&#x9;&lt;/span&gt;hookStep2()&lt;/div&gt;&lt;div&gt;&lt;span style=&quot;white-space: pre;&quot;&gt;&#x9;&lt;/span&gt;hookStep3()&lt;/div&gt;&lt;div&gt;&lt;span style=&quot;white-space: pre;&quot;&gt;&#x9;&lt;/span&gt;fixedStep4()&lt;/div&gt;&lt;div&gt;&lt;br&gt;&lt;/div&gt;&lt;div&gt;}&lt;/div&gt;" style="shape=note2;boundedLbl=1;whiteSpace=wrap;html=1;size=25;verticalAlign=top;align=left;fontSize=16;" vertex="1" parent="1">
          <mxGeometry x="520" y="80" width="280" height="160" as="geometry" />
        </mxCell>
        <mxCell id="CJPoG4SmHq_SvshiUAaI-8" value="&lt;b&gt;ConcreteClass&lt;/b&gt;" style="swimlane;fontStyle=0;childLayout=stackLayout;horizontal=1;startSize=40;fillColor=none;horizontalStack=0;resizeParent=1;resizeParentMax=0;resizeLast=0;collapsible=1;marginBottom=0;whiteSpace=wrap;html=1;strokeWidth=2;labelBorderColor=none;swimlaneLine=1;fontSize=16;" vertex="1" parent="1">
          <mxGeometry x="120" y="318" width="280" height="162" as="geometry" />
        </mxCell>
        <mxCell id="CJPoG4SmHq_SvshiUAaI-11" value="# hookStep2()&lt;div&gt;&lt;br&gt;&lt;div&gt;# hookStep3()&lt;/div&gt;&lt;/div&gt;" style="text;strokeColor=none;fillColor=none;align=left;verticalAlign=top;spacingLeft=4;spacingRight=4;overflow=hidden;rotatable=0;points=[[0,0.5],[1,0.5]];portConstraint=eastwest;whiteSpace=wrap;html=1;fontSize=16;" vertex="1" parent="CJPoG4SmHq_SvshiUAaI-8">
          <mxGeometry y="40" width="280" height="122" as="geometry" />
        </mxCell>
        <mxCell id="CJPoG4SmHq_SvshiUAaI-12" style="edgeStyle=orthogonalEdgeStyle;rounded=0;orthogonalLoop=1;jettySize=auto;html=1;exitX=1;exitY=0.5;exitDx=0;exitDy=0;entryX=0;entryY=0.244;entryDx=0;entryDy=0;entryPerimeter=0;dashed=1;endArrow=none;startFill=0;fontSize=16;" edge="1" parent="1" source="CJPoG4SmHq_SvshiUAaI-3" target="CJPoG4SmHq_SvshiUAaI-7">
          <mxGeometry relative="1" as="geometry" />
        </mxCell>
        <mxCell id="CJPoG4SmHq_SvshiUAaI-13" style="edgeStyle=orthogonalEdgeStyle;rounded=0;orthogonalLoop=1;jettySize=auto;html=1;entryX=0.5;entryY=1;entryDx=0;entryDy=0;entryPerimeter=0;endArrow=block;endFill=0;startSize=6;endSize=20;fontSize=16;" edge="1" parent="1" source="CJPoG4SmHq_SvshiUAaI-8" target="CJPoG4SmHq_SvshiUAaI-4">
          <mxGeometry relative="1" as="geometry" />
        </mxCell>
        <mxCell id="CJPoG4SmHq_SvshiUAaI-14" value="&lt;h1 style=&quot;margin-top: 0px;&quot;&gt;The Template Design Pattern&lt;/h1&gt;&lt;p&gt;&lt;font style=&quot;font-size: 16px;&quot;&gt;&lt;b&gt;Abstract Class&lt;/b&gt;&lt;/font&gt;&lt;/p&gt;&lt;p&gt;&lt;font size=&quot;3&quot;&gt;* Defines the template() method that contains the skeleton of the algorithm&lt;/font&gt;&lt;/p&gt;&lt;p&gt;&lt;font size=&quot;3&quot;&gt;* Includes fixed and customizable operations&lt;/font&gt;&lt;/p&gt;&lt;p&gt;&lt;font size=&quot;3&quot;&gt;&lt;br&gt;&lt;/font&gt;&lt;/p&gt;&lt;p&gt;&lt;font size=&quot;3&quot;&gt;&lt;b&gt;ConcreteClass&lt;/b&gt;&lt;/font&gt;&lt;/p&gt;&lt;p&gt;&lt;font size=&quot;3&quot;&gt;* Implements the &quot;hook&quot; operations&lt;/font&gt;&lt;/p&gt;" style="text;html=1;whiteSpace=wrap;overflow=hidden;rounded=0;" vertex="1" parent="1">
          <mxGeometry x="120" y="-240" width="680" height="360" as="geometry" />
        </mxCell>
      </root>
    </mxGraphModel>
  </diagram>
</mxfile>
